<svg xmlns="http://www.w3.org/2000/svg" width="16" height="16"  viewBox="0 0 16 16">
    <g fill-rule="evenodd" clip-rule="evenodd">
        <path style="fill:#ddd" d="M13.657 2.343A8 8 0 1 1 2.343 13.657 8 8 0 0 1 13.657 2.343m-.707.707a7 7 0 1 1-9.9 9.9 7 7 0 0 1 9.9-9.9"  fill-opacity="1"/>
        <path style="fill:#ddd" d="M6.055 4.995a.75.75 0 1 0-1.06 1.06L6.939 8 4.995 9.945a.75.75 0 1 0 1.06 1.06L8 9.061l1.944 1.944a.75.75 0 1 0 1.061-1.06L9.061 8l1.944-1.945a.75.75 0 1 0-1.06-1.06L8 6.939z"  fill-opacity="1"/></g>
    <defs><clipPath><path  d="M0 0h16v16H0z" fill-opacity="1"/></clipPath></defs>
</svg>
